<svg width="512" height="512" viewBox="0 0 512 512" fill="none" xmlns="http://www.w3.org/2000/svg">
    <rect width="512" height="512" rx="150" fill="#FAF0E0" />
    <path fill-rule="evenodd" clip-rule="evenodd"
        d="M206.572 254.821L376.185 193.873L406.118 181.462V173.048C406.118 152.561 406.118 135.38 404.512 121.691C404.285 119.757 404.018 117.833 403.722 116.039C402.176 106.686 399.445 97.9621 394.171 90.6769C391.536 87.0341 388.263 83.7513 384.188 80.9294C383.423 80.4004 382.631 79.8875 381.81 79.3915L381.645 79.2925C367.531 70.8553 351.667 71.4587 335.323 75.1999C319.518 78.8182 299.924 86.1865 275.894 95.2216L234.108 110.933C222.844 115.167 213.302 118.755 205.813 122.471C197.844 126.424 190.979 131.087 185.832 138.036C180.684 144.985 178.546 152.473 177.563 160.603C176.639 168.245 176.639 177.537 176.64 188.505V266.504L206.572 254.821Z"
        fill="#F2930D" />
    <g opacity="0.5">
        <path
            d="M176.648 331.054C166.568 325.257 154.584 321.895 141.727 321.895C105.91 321.895 76.875 347.979 76.875 380.154C76.875 412.329 105.91 438.413 141.727 438.413C177.544 438.413 206.579 412.329 206.579 380.154V254.818L176.648 266.501V331.054Z"
            fill="#F2930D" />
        <path
            d="M376.192 193.869V295.202C366.114 289.405 354.129 286.043 341.272 286.043C305.455 286.043 276.421 312.127 276.421 344.302C276.421 376.477 305.455 402.561 341.272 402.561C377.089 402.561 406.125 376.477 406.125 344.302V181.458L376.192 193.869Z"
            fill="#F2930D" />
    </g>
</svg>